<mxfile host="app.diagrams.net" modified="2025-01-29T00:01:39.296Z" agent="Mozilla/5.0 (Windows NT 10.0; Win64; x64) AppleWebKit/537.36 (KHTML, like Gecko) Chrome/131.0.0.0 Safari/537.36" etag="ekHjBS4UJcwafQi81PX6" version="23.1.6" type="device">
  <diagram name="Page-1" id="lL6sUfZ18ssif5lyLuVA">
    <mxGraphModel dx="1050" dy="1726" grid="1" gridSize="10" guides="1" tooltips="1" connect="1" arrows="1" fold="1" page="1" pageScale="1" pageWidth="827" pageHeight="1169" math="0" shadow="0">
      <root>
        <mxCell id="0" />
        <mxCell id="1" parent="0" />
        <mxCell id="MWFJ0ZS3vIOTSsvf2V8_-37" style="edgeStyle=orthogonalEdgeStyle;rounded=0;orthogonalLoop=1;jettySize=auto;html=1;entryX=0.5;entryY=0;entryDx=0;entryDy=0;" edge="1" parent="1" source="MWFJ0ZS3vIOTSsvf2V8_-1" target="MWFJ0ZS3vIOTSsvf2V8_-3">
          <mxGeometry relative="1" as="geometry" />
        </mxCell>
        <mxCell id="MWFJ0ZS3vIOTSsvf2V8_-1" value="Similar users" style="rounded=0;whiteSpace=wrap;html=1;" vertex="1" parent="1">
          <mxGeometry x="120" y="170" width="120" height="60" as="geometry" />
        </mxCell>
        <mxCell id="MWFJ0ZS3vIOTSsvf2V8_-38" style="edgeStyle=orthogonalEdgeStyle;rounded=0;orthogonalLoop=1;jettySize=auto;html=1;entryX=0.5;entryY=0;entryDx=0;entryDy=0;" edge="1" parent="1" source="MWFJ0ZS3vIOTSsvf2V8_-2" target="MWFJ0ZS3vIOTSsvf2V8_-4">
          <mxGeometry relative="1" as="geometry" />
        </mxCell>
        <mxCell id="MWFJ0ZS3vIOTSsvf2V8_-2" value="Genre representation" style="rounded=0;whiteSpace=wrap;html=1;" vertex="1" parent="1">
          <mxGeometry x="354" y="170" width="120" height="60" as="geometry" />
        </mxCell>
        <mxCell id="MWFJ0ZS3vIOTSsvf2V8_-36" style="edgeStyle=orthogonalEdgeStyle;rounded=0;orthogonalLoop=1;jettySize=auto;html=1;entryX=0;entryY=0.5;entryDx=0;entryDy=0;" edge="1" parent="1" source="MWFJ0ZS3vIOTSsvf2V8_-3" target="MWFJ0ZS3vIOTSsvf2V8_-7">
          <mxGeometry relative="1" as="geometry">
            <Array as="points">
              <mxPoint x="180" y="570" />
            </Array>
          </mxGeometry>
        </mxCell>
        <mxCell id="MWFJ0ZS3vIOTSsvf2V8_-3" value="CF scores" style="rounded=0;whiteSpace=wrap;html=1;" vertex="1" parent="1">
          <mxGeometry x="120" y="330" width="120" height="60" as="geometry" />
        </mxCell>
        <mxCell id="MWFJ0ZS3vIOTSsvf2V8_-35" style="edgeStyle=orthogonalEdgeStyle;rounded=0;orthogonalLoop=1;jettySize=auto;html=1;entryX=0;entryY=0.25;entryDx=0;entryDy=0;" edge="1" parent="1" source="MWFJ0ZS3vIOTSsvf2V8_-4" target="MWFJ0ZS3vIOTSsvf2V8_-7">
          <mxGeometry relative="1" as="geometry">
            <Array as="points">
              <mxPoint x="410" y="555" />
            </Array>
          </mxGeometry>
        </mxCell>
        <mxCell id="MWFJ0ZS3vIOTSsvf2V8_-4" value="Diversity scores" style="rounded=0;whiteSpace=wrap;html=1;" vertex="1" parent="1">
          <mxGeometry x="354" y="330" width="120" height="60" as="geometry" />
        </mxCell>
        <mxCell id="MWFJ0ZS3vIOTSsvf2V8_-33" style="edgeStyle=orthogonalEdgeStyle;rounded=0;orthogonalLoop=1;jettySize=auto;html=1;entryX=1;entryY=0.25;entryDx=0;entryDy=0;" edge="1" parent="1" source="MWFJ0ZS3vIOTSsvf2V8_-5" target="MWFJ0ZS3vIOTSsvf2V8_-7">
          <mxGeometry relative="1" as="geometry" />
        </mxCell>
        <mxCell id="MWFJ0ZS3vIOTSsvf2V8_-5" value="Tag similarity" style="rounded=0;whiteSpace=wrap;html=1;" vertex="1" parent="1">
          <mxGeometry x="580" y="330" width="120" height="60" as="geometry" />
        </mxCell>
        <mxCell id="MWFJ0ZS3vIOTSsvf2V8_-34" style="edgeStyle=orthogonalEdgeStyle;rounded=0;orthogonalLoop=1;jettySize=auto;html=1;entryX=1;entryY=0.5;entryDx=0;entryDy=0;" edge="1" parent="1" source="MWFJ0ZS3vIOTSsvf2V8_-6" target="MWFJ0ZS3vIOTSsvf2V8_-7">
          <mxGeometry relative="1" as="geometry">
            <Array as="points">
              <mxPoint x="870" y="570" />
            </Array>
          </mxGeometry>
        </mxCell>
        <mxCell id="MWFJ0ZS3vIOTSsvf2V8_-6" value="Rating weighting" style="rounded=0;whiteSpace=wrap;html=1;" vertex="1" parent="1">
          <mxGeometry x="810" y="330" width="120" height="60" as="geometry" />
        </mxCell>
        <mxCell id="MWFJ0ZS3vIOTSsvf2V8_-32" style="edgeStyle=orthogonalEdgeStyle;rounded=0;orthogonalLoop=1;jettySize=auto;html=1;entryX=0;entryY=0.5;entryDx=0;entryDy=0;" edge="1" parent="1" source="MWFJ0ZS3vIOTSsvf2V8_-7" target="MWFJ0ZS3vIOTSsvf2V8_-27">
          <mxGeometry relative="1" as="geometry">
            <Array as="points">
              <mxPoint x="550" y="750" />
            </Array>
          </mxGeometry>
        </mxCell>
        <mxCell id="MWFJ0ZS3vIOTSsvf2V8_-7" value="Final score" style="rounded=0;whiteSpace=wrap;html=1;" vertex="1" parent="1">
          <mxGeometry x="490" y="540" width="120" height="60" as="geometry" />
        </mxCell>
        <mxCell id="MWFJ0ZS3vIOTSsvf2V8_-9" value="" style="rounded=0;whiteSpace=wrap;html=1;fillColor=none;" vertex="1" parent="1">
          <mxGeometry x="90" y="100" width="180" height="320" as="geometry" />
        </mxCell>
        <mxCell id="MWFJ0ZS3vIOTSsvf2V8_-11" value="Collaborative" style="text;html=1;align=center;verticalAlign=middle;whiteSpace=wrap;rounded=0;" vertex="1" parent="1">
          <mxGeometry x="150" y="110" width="60" height="30" as="geometry" />
        </mxCell>
        <mxCell id="MWFJ0ZS3vIOTSsvf2V8_-12" value="Diversity" style="text;html=1;align=center;verticalAlign=middle;whiteSpace=wrap;rounded=0;" vertex="1" parent="1">
          <mxGeometry x="390" y="110" width="60" height="30" as="geometry" />
        </mxCell>
        <mxCell id="MWFJ0ZS3vIOTSsvf2V8_-13" value="Content based" style="text;html=1;align=center;verticalAlign=middle;whiteSpace=wrap;rounded=0;" vertex="1" parent="1">
          <mxGeometry x="710" y="290" width="100" height="30" as="geometry" />
        </mxCell>
        <mxCell id="MWFJ0ZS3vIOTSsvf2V8_-28" style="edgeStyle=orthogonalEdgeStyle;rounded=0;orthogonalLoop=1;jettySize=auto;html=1;entryX=0;entryY=0.5;entryDx=0;entryDy=0;" edge="1" parent="1" source="MWFJ0ZS3vIOTSsvf2V8_-14" target="MWFJ0ZS3vIOTSsvf2V8_-18">
          <mxGeometry relative="1" as="geometry" />
        </mxCell>
        <mxCell id="MWFJ0ZS3vIOTSsvf2V8_-14" value="Popularity scoring" style="rounded=0;whiteSpace=wrap;html=1;" vertex="1" parent="1">
          <mxGeometry x="1050" y="400" width="120" height="60" as="geometry" />
        </mxCell>
        <mxCell id="MWFJ0ZS3vIOTSsvf2V8_-29" style="edgeStyle=orthogonalEdgeStyle;rounded=0;orthogonalLoop=1;jettySize=auto;html=1;entryX=1;entryY=0.5;entryDx=0;entryDy=0;" edge="1" parent="1" source="MWFJ0ZS3vIOTSsvf2V8_-15" target="MWFJ0ZS3vIOTSsvf2V8_-18">
          <mxGeometry relative="1" as="geometry" />
        </mxCell>
        <mxCell id="MWFJ0ZS3vIOTSsvf2V8_-15" value="Diversity scoring" style="rounded=0;whiteSpace=wrap;html=1;" vertex="1" parent="1">
          <mxGeometry x="1290" y="400" width="120" height="60" as="geometry" />
        </mxCell>
        <mxCell id="MWFJ0ZS3vIOTSsvf2V8_-17" value="Cold start" style="text;html=1;align=center;verticalAlign=middle;whiteSpace=wrap;rounded=0;" vertex="1" parent="1">
          <mxGeometry x="1180" y="310" width="100" height="30" as="geometry" />
        </mxCell>
        <mxCell id="MWFJ0ZS3vIOTSsvf2V8_-30" style="edgeStyle=orthogonalEdgeStyle;rounded=0;orthogonalLoop=1;jettySize=auto;html=1;exitX=0.5;exitY=1;exitDx=0;exitDy=0;entryX=1;entryY=0.5;entryDx=0;entryDy=0;" edge="1" parent="1" source="MWFJ0ZS3vIOTSsvf2V8_-18" target="MWFJ0ZS3vIOTSsvf2V8_-27">
          <mxGeometry relative="1" as="geometry" />
        </mxCell>
        <mxCell id="MWFJ0ZS3vIOTSsvf2V8_-18" value="Cold start score" style="rounded=0;whiteSpace=wrap;html=1;" vertex="1" parent="1">
          <mxGeometry x="1170" y="540" width="120" height="60" as="geometry" />
        </mxCell>
        <mxCell id="MWFJ0ZS3vIOTSsvf2V8_-20" value="User embeddings" style="rounded=0;whiteSpace=wrap;html=1;" vertex="1" parent="1">
          <mxGeometry x="1170" y="-350" width="120" height="60" as="geometry" />
        </mxCell>
        <mxCell id="MWFJ0ZS3vIOTSsvf2V8_-21" value="Item embeddings" style="rounded=0;whiteSpace=wrap;html=1;" vertex="1" parent="1">
          <mxGeometry x="1170" y="-270" width="120" height="60" as="geometry" />
        </mxCell>
        <mxCell id="MWFJ0ZS3vIOTSsvf2V8_-23" value="Inputs" style="text;html=1;align=center;verticalAlign=middle;whiteSpace=wrap;rounded=0;" vertex="1" parent="1">
          <mxGeometry x="1200" y="-410" width="60" height="30" as="geometry" />
        </mxCell>
        <mxCell id="MWFJ0ZS3vIOTSsvf2V8_-24" value="User profiles" style="rounded=0;whiteSpace=wrap;html=1;" vertex="1" parent="1">
          <mxGeometry x="1170" y="-190" width="120" height="60" as="geometry" />
        </mxCell>
        <mxCell id="MWFJ0ZS3vIOTSsvf2V8_-25" value="Item profiles" style="rounded=0;whiteSpace=wrap;html=1;" vertex="1" parent="1">
          <mxGeometry x="1170" y="-110" width="120" height="60" as="geometry" />
        </mxCell>
        <mxCell id="MWFJ0ZS3vIOTSsvf2V8_-45" style="edgeStyle=orthogonalEdgeStyle;rounded=0;orthogonalLoop=1;jettySize=auto;html=1;entryX=0.5;entryY=0;entryDx=0;entryDy=0;" edge="1" parent="1" source="MWFJ0ZS3vIOTSsvf2V8_-26" target="MWFJ0ZS3vIOTSsvf2V8_-42">
          <mxGeometry relative="1" as="geometry" />
        </mxCell>
        <mxCell id="MWFJ0ZS3vIOTSsvf2V8_-46" style="edgeStyle=orthogonalEdgeStyle;rounded=0;orthogonalLoop=1;jettySize=auto;html=1;entryX=0.5;entryY=0;entryDx=0;entryDy=0;" edge="1" parent="1" source="MWFJ0ZS3vIOTSsvf2V8_-26" target="MWFJ0ZS3vIOTSsvf2V8_-41">
          <mxGeometry relative="1" as="geometry" />
        </mxCell>
        <mxCell id="MWFJ0ZS3vIOTSsvf2V8_-26" value="" style="rounded=0;whiteSpace=wrap;html=1;fillColor=none;" vertex="1" parent="1">
          <mxGeometry x="1140" y="-420" width="180" height="400" as="geometry" />
        </mxCell>
        <mxCell id="MWFJ0ZS3vIOTSsvf2V8_-27" value="Recommendations" style="rounded=0;whiteSpace=wrap;html=1;" vertex="1" parent="1">
          <mxGeometry x="870" y="720" width="120" height="60" as="geometry" />
        </mxCell>
        <mxCell id="MWFJ0ZS3vIOTSsvf2V8_-39" value="" style="rounded=0;whiteSpace=wrap;html=1;fillColor=none;" vertex="1" parent="1">
          <mxGeometry x="324" y="100" width="180" height="320" as="geometry" />
        </mxCell>
        <mxCell id="MWFJ0ZS3vIOTSsvf2V8_-40" value="" style="rounded=0;whiteSpace=wrap;html=1;fillColor=none;" vertex="1" parent="1">
          <mxGeometry x="560" y="280" width="390" height="140" as="geometry" />
        </mxCell>
        <mxCell id="MWFJ0ZS3vIOTSsvf2V8_-41" value="" style="rounded=0;whiteSpace=wrap;html=1;fillColor=none;" vertex="1" parent="1">
          <mxGeometry x="1030" y="310" width="400" height="310" as="geometry" />
        </mxCell>
        <mxCell id="MWFJ0ZS3vIOTSsvf2V8_-42" value="" style="rounded=0;whiteSpace=wrap;html=1;fillColor=none;" vertex="1" parent="1">
          <mxGeometry x="50" width="940" height="620" as="geometry" />
        </mxCell>
        <mxCell id="MWFJ0ZS3vIOTSsvf2V8_-43" value="Personalised" style="text;html=1;align=center;verticalAlign=middle;whiteSpace=wrap;rounded=0;" vertex="1" parent="1">
          <mxGeometry x="504" y="10" width="60" height="30" as="geometry" />
        </mxCell>
      </root>
    </mxGraphModel>
  </diagram>
</mxfile>
